<svg xmlns="http://www.w3.org/2000/svg" width="1600" height="1200" viewBox="0 0 1600 1200" role="img" aria-label="DESIGN SYSTEM product image placeholder">
<defs><linearGradient id="g" x1="0" y1="0" x2="1" y2="1"><stop stop-color="#1d1622"/><stop offset="1" stop-color="#0d0910"/></linearGradient><radialGradient id="r"><stop stop-color="#ed4fc6" stop-opacity=".32"/><stop offset="1" stop-color="#ed4fc6" stop-opacity="0"/></radialGradient></defs>
<rect width="1600" height="1200" rx="56" fill="url(#g)"/>
<circle cx="1320" cy="210" r="360" fill="url(#r)"/>
<rect x="105" y="105" width="1390" height="990" rx="38" fill="#151019" stroke="#ffffff" stroke-opacity=".14" stroke-width="4"/>
<rect x="105" y="105" width="1390" height="110" rx="38" fill="#201827"/><circle cx="175" cy="160" r="15" fill="#ed4fc6"/><circle cx="225" cy="160" r="15" fill="#b66cff"/><circle cx="275" cy="160" r="15" fill="#ffffff" fill-opacity=".28"/>
<text x="135" y="350" fill="#ed4fc6" font-family="Arial, sans-serif" font-size="40" font-weight="700" letter-spacing="8">DESIGN SYSTEM</text>
<text x="135" y="470" fill="#f8f2f7" font-family="Arial, sans-serif" font-size="88" font-weight="700">Components</text>
<text x="135" y="545" fill="#b0a3ae" font-family="Arial, sans-serif" font-size="40">Reusable product foundations</text>
<rect x="135" y="650" width="520" height="270" rx="28" fill="#211827" stroke="#ffffff" stroke-opacity=".1"/><rect x="700" y="650" width="655" height="72" rx="20" fill="#2b2032"/><rect x="700" y="755" width="560" height="38" rx="19" fill="#ffffff" fill-opacity=".13"/><rect x="700" y="825" width="610" height="38" rx="19" fill="#ffffff" fill-opacity=".09"/><rect x="700" y="895" width="410" height="38" rx="19" fill="#ed4fc6" fill-opacity=".55"/>
</svg>